<svg xmlns="http://www.w3.org/2000/svg" viewBox="0 0 32 32">
  <rect width="32" height="32" rx="6" fill="#14a800"/>
  <path fill="none" stroke="#ffffff" stroke-width="2" stroke-linecap="round" stroke-linejoin="round" d="M11.5 16a.5.5 0 11-1 0 .5.5 0 011 0zm0 0h-.25m5.5 0a.5.5 0 11-1 0 .5.5 0 011 0zm0 0h-.25m5.5 0a.5.5 0 11-1 0 .5.5 0 011 0zm0 0h-.5M28 16c0 6.075-5.376 11-12 11a13.018 13.018 0 01-3.407-.45A7.962 7.962 0 017.213 27.96a7.958 7.958 0 01-.632-.087 5.973 5.973 0 001.304-2.7c.12-.61-.177-1.202-.623-1.634C4.24 21.57 3 18.918 3 16c0-6.075 5.376-11 12-11s12 4.925 12 11z"/>
</svg>
